<mxfile host="app.diagrams.net" modified="2022-07-01T07:14:33.131Z" agent="5.0 (Windows NT 10.0; Win64; x64) AppleWebKit/537.36 (KHTML, like Gecko) Chrome/104.0.0.0 Safari/537.36" etag="ffqMDmd9VyoNpYjI4kFA" version="20.0.4" type="github">
  <diagram id="p384VBvplDatqNIhfxaH" name="Page-1">
    <mxGraphModel dx="1038" dy="571" grid="1" gridSize="10" guides="1" tooltips="1" connect="1" arrows="1" fold="1" page="1" pageScale="1" pageWidth="827" pageHeight="1169" math="0" shadow="0">
      <root>
        <mxCell id="0" />
        <mxCell id="1" parent="0" />
        <mxCell id="iqx5v84XH_xB6p_Dl55_-23" value="" style="rounded=1;whiteSpace=wrap;html=1;shadow=0;glass=0;sketch=1;" vertex="1" parent="1">
          <mxGeometry x="70" y="100" width="460" height="270" as="geometry" />
        </mxCell>
        <mxCell id="iqx5v84XH_xB6p_Dl55_-2" value="Opt" style="swimlane;fontStyle=0;childLayout=stackLayout;horizontal=1;startSize=30;horizontalStack=0;resizeParent=1;resizeParentMax=0;resizeLast=0;collapsible=1;marginBottom=0;rounded=1;swimlaneLine=1;shadow=0;glass=0;sketch=1;" vertex="1" parent="1">
          <mxGeometry x="340" y="200" width="140" height="150" as="geometry" />
        </mxCell>
        <mxCell id="iqx5v84XH_xB6p_Dl55_-3" value="Sync()" style="text;strokeColor=none;fillColor=none;align=left;verticalAlign=middle;spacingLeft=4;spacingRight=4;overflow=hidden;points=[[0,0.5],[1,0.5]];portConstraint=eastwest;rotatable=0;" vertex="1" parent="iqx5v84XH_xB6p_Dl55_-2">
          <mxGeometry y="30" width="140" height="30" as="geometry" />
        </mxCell>
        <mxCell id="iqx5v84XH_xB6p_Dl55_-4" value="ChooseBigReward()" style="text;strokeColor=none;fillColor=none;align=left;verticalAlign=middle;spacingLeft=4;spacingRight=4;overflow=hidden;points=[[0,0.5],[1,0.5]];portConstraint=eastwest;rotatable=0;rounded=1;" vertex="1" parent="iqx5v84XH_xB6p_Dl55_-2">
          <mxGeometry y="60" width="140" height="30" as="geometry" />
        </mxCell>
        <mxCell id="iqx5v84XH_xB6p_Dl55_-5" value="Flip()" style="text;strokeColor=none;fillColor=none;align=left;verticalAlign=middle;spacingLeft=4;spacingRight=4;overflow=hidden;points=[[0,0.5],[1,0.5]];portConstraint=eastwest;rotatable=0;" vertex="1" parent="iqx5v84XH_xB6p_Dl55_-2">
          <mxGeometry y="90" width="140" height="30" as="geometry" />
        </mxCell>
        <mxCell id="iqx5v84XH_xB6p_Dl55_-6" value="NextLevel()" style="text;strokeColor=none;fillColor=none;align=left;verticalAlign=middle;spacingLeft=4;spacingRight=4;overflow=hidden;points=[[0,0.5],[1,0.5]];portConstraint=eastwest;rotatable=0;" vertex="1" parent="iqx5v84XH_xB6p_Dl55_-2">
          <mxGeometry y="120" width="140" height="30" as="geometry" />
        </mxCell>
        <mxCell id="iqx5v84XH_xB6p_Dl55_-20" style="edgeStyle=orthogonalEdgeStyle;rounded=0;orthogonalLoop=1;jettySize=auto;html=1;exitX=0.55;exitY=0.95;exitDx=0;exitDy=0;exitPerimeter=0;entryX=0.5;entryY=0;entryDx=0;entryDy=0;" edge="1" parent="1" source="iqx5v84XH_xB6p_Dl55_-8" target="iqx5v84XH_xB6p_Dl55_-15">
          <mxGeometry relative="1" as="geometry" />
        </mxCell>
        <mxCell id="iqx5v84XH_xB6p_Dl55_-8" value="Calendar open&lt;br&gt;notify" style="ellipse;shape=cloud;whiteSpace=wrap;html=1;rounded=1;shadow=0;glass=0;sketch=1;" vertex="1" parent="1">
          <mxGeometry x="120" y="10" width="120" height="70" as="geometry" />
        </mxCell>
        <mxCell id="iqx5v84XH_xB6p_Dl55_-9" value="Reset data if&lt;br&gt;calendar different" style="shape=process;whiteSpace=wrap;html=1;backgroundOutline=1;rounded=1;shadow=0;glass=0;sketch=1;" vertex="1" parent="1">
          <mxGeometry x="120" y="190" width="130" height="60" as="geometry" />
        </mxCell>
        <mxCell id="iqx5v84XH_xB6p_Dl55_-11" value="" style="endArrow=classic;html=1;rounded=0;" edge="1" parent="1">
          <mxGeometry relative="1" as="geometry">
            <mxPoint x="250" y="219.5" as="sourcePoint" />
            <mxPoint x="340" y="219.5" as="targetPoint" />
          </mxGeometry>
        </mxCell>
        <mxCell id="iqx5v84XH_xB6p_Dl55_-15" value="CalendarId" style="rounded=1;whiteSpace=wrap;html=1;shadow=0;glass=0;sketch=1;" vertex="1" parent="1">
          <mxGeometry x="130" y="130" width="110" height="30" as="geometry" />
        </mxCell>
        <mxCell id="iqx5v84XH_xB6p_Dl55_-16" value="" style="endArrow=none;dashed=1;html=1;dashPattern=1 3;strokeWidth=2;rounded=0;entryX=0.5;entryY=1;entryDx=0;entryDy=0;exitX=0.5;exitY=0;exitDx=0;exitDy=0;" edge="1" parent="1" source="iqx5v84XH_xB6p_Dl55_-9" target="iqx5v84XH_xB6p_Dl55_-15">
          <mxGeometry width="50" height="50" relative="1" as="geometry">
            <mxPoint x="180" y="190" as="sourcePoint" />
            <mxPoint x="440" y="250" as="targetPoint" />
          </mxGeometry>
        </mxCell>
        <mxCell id="iqx5v84XH_xB6p_Dl55_-24" style="edgeStyle=orthogonalEdgeStyle;rounded=0;orthogonalLoop=1;jettySize=auto;html=1;exitX=0;exitY=0;exitDx=75;exitDy=0;exitPerimeter=0;entryX=0.5;entryY=1;entryDx=0;entryDy=0;" edge="1" parent="1" source="iqx5v84XH_xB6p_Dl55_-21" target="iqx5v84XH_xB6p_Dl55_-9">
          <mxGeometry relative="1" as="geometry">
            <Array as="points">
              <mxPoint x="185" y="390" />
            </Array>
          </mxGeometry>
        </mxCell>
        <mxCell id="iqx5v84XH_xB6p_Dl55_-21" value="_roleId&lt;br&gt;_calenderId&lt;br&gt;_level&lt;br&gt;_cards&lt;br&gt;_futureQueue" style="shape=cube;whiteSpace=wrap;html=1;boundedLbl=1;backgroundOutline=1;darkOpacity=0.05;darkOpacity2=0.1;rounded=1;shadow=0;glass=0;sketch=1;" vertex="1" parent="1">
          <mxGeometry x="95" y="390" width="170" height="110" as="geometry" />
        </mxCell>
        <mxCell id="iqx5v84XH_xB6p_Dl55_-25" value="Entities" style="text;html=1;strokeColor=none;fillColor=none;align=center;verticalAlign=middle;whiteSpace=wrap;rounded=0;shadow=0;glass=0;sketch=1;" vertex="1" parent="1">
          <mxGeometry x="109" y="384" width="60" height="30" as="geometry" />
        </mxCell>
        <mxCell id="iqx5v84XH_xB6p_Dl55_-26" value="Update" style="text;html=1;strokeColor=none;fillColor=none;align=center;verticalAlign=middle;whiteSpace=wrap;rounded=0;shadow=0;glass=0;sketch=1;" vertex="1" parent="1">
          <mxGeometry x="140" y="70" width="60" height="30" as="geometry" />
        </mxCell>
        <mxCell id="iqx5v84XH_xB6p_Dl55_-27" value="Opt" style="text;html=1;strokeColor=none;fillColor=none;align=center;verticalAlign=middle;whiteSpace=wrap;rounded=0;shadow=0;glass=0;sketch=1;" vertex="1" parent="1">
          <mxGeometry x="140" y="300" width="60" height="30" as="geometry" />
        </mxCell>
        <mxCell id="iqx5v84XH_xB6p_Dl55_-28" value="FlipCardMgr" style="text;html=1;strokeColor=none;fillColor=none;align=center;verticalAlign=middle;whiteSpace=wrap;rounded=0;shadow=0;glass=0;sketch=1;" vertex="1" parent="1">
          <mxGeometry x="450" y="110" width="60" height="30" as="geometry" />
        </mxCell>
      </root>
    </mxGraphModel>
  </diagram>
</mxfile>
